HIERARCHY
ROOT Hips
{
	OFFSET -0.001795 -0.223333 0.028219
	CHANNELS 6 Xposition Yposition Zposition Zrotation Yrotation Xrotation 
	JOINT LeftUpLeg
	{
		OFFSET 0.069520 -0.091406 -0.006815
		CHANNELS 3 Zrotation Yrotation Xrotation
		JOINT LeftLeg
		{
			OFFSET 0.034277 -0.375199 -0.004496
			CHANNELS 3 Zrotation Yrotation Xrotation
			JOINT LeftFoot
			{
				OFFSET -0.013596 -0.397961 -0.043693
				CHANNELS 3 Zrotation Yrotation Xrotation
				JOINT LeftToe
				{
					OFFSET 0.026358 -0.055791 0.119288
					CHANNELS 3 Zrotation Yrotation Xrotation
					End Site
					{
						OFFSET 0.000000 0.000000 0.000000
					}
				}
			}
		}
	}
	JOINT RightUpLeg
	{
		OFFSET -0.067670 -0.090522 -0.004320
		CHANNELS 3 Zrotation Yrotation Xrotation
		JOINT RightLeg
		{
			OFFSET -0.038290 -0.382569 -0.008850
			CHANNELS 3 Zrotation Yrotation Xrotation
			JOINT RightFoot
			{
				OFFSET 0.015774 -0.398415 -0.042312
				CHANNELS 3 Zrotation Yrotation Xrotation
				JOINT RightToe
				{
					OFFSET -0.025372 -0.048144 0.123348
					CHANNELS 3 Zrotation Yrotation Xrotation
					End Site
					{
						OFFSET 0.000000 0.000000 0.000000
					}
				}
			}
		}
	}
	JOINT Spine
	{
		OFFSET -0.002533 0.108963 -0.026696
		CHANNELS 3 Zrotation Yrotation Xrotation
		JOINT Spine1
		{
			OFFSET 0.005487 0.135180 0.001092
			CHANNELS 3 Zrotation Yrotation Xrotation
			JOINT Spine2
			{
				OFFSET 0.001457 0.052922 0.025425
				CHANNELS 3 Zrotation Yrotation Xrotation
				JOINT Neck
				{
					OFFSET -0.002778 0.213870 -0.042857
					CHANNELS 3 Zrotation Yrotation Xrotation
					JOINT Head
					{
						OFFSET 0.005152 0.064970 0.051349
						CHANNELS 3 Zrotation Yrotation Xrotation
						End Site
						{
							OFFSET 0.000000 0.000000 0.000000
						}
					}
				}
				JOINT LeftShoulder
				{
					OFFSET 0.078845 0.121749 -0.034090
					CHANNELS 3 Zrotation Yrotation Xrotation
					JOINT LeftArm
					{
						OFFSET 0.090977 0.030469 -0.008868
						CHANNELS 3 Zrotation Yrotation Xrotation
						JOINT LeftForeArm
						{
							OFFSET 0.259612 -0.012772 -0.027456
							CHANNELS 3 Zrotation Yrotation Xrotation
							JOINT LeftHand
							{
								OFFSET 0.249234 0.008986 -0.001171
								CHANNELS 3 Zrotation Yrotation Xrotation
								End Site
								{
									OFFSET 0.000000 0.000000 0.000000
								}
							}
						}
					}
				}
				JOINT RightShoulder
				{
					OFFSET -0.081759 0.118833 -0.038615
					CHANNELS 3 Zrotation Yrotation Xrotation
					JOINT RightArm
					{
						OFFSET -0.096012 0.032551 -0.009143
						CHANNELS 3 Zrotation Yrotation Xrotation
						JOINT RightForeArm
						{
							OFFSET -0.253742 -0.013329 -0.021401
							CHANNELS 3 Zrotation Yrotation Xrotation
							JOINT RightHand
							{
								OFFSET -0.255298 0.007772 -0.005559
								CHANNELS 3 Zrotation Yrotation Xrotation
								End Site
								{
									OFFSET 0.000000 0.000000 0.000000
								}
							}
						}
					}
				}
			}
		}
	}
}
MOTION
Frames: 6
Frame Time: 0.050000
0.000000 0.948855 0.000000 -1.996374 7.768152 6.824185 6.651388 -0.377369 -2.182288 0.474439 0.193950 -6.902426 1.305637 7.283771 11.121622 0.000000 0.000000 0.000000 -2.684599 0.426782 -4.498969 -0.726336 -0.079717 -3.599665 -0.764258 -4.864937 10.064631 0.000000 0.000000 0.000000 1.309529 0.158194 -4.347763 0.574114 -0.047831 -4.245703 -2.018134 -1.108466 6.517892 3.133433 -0.527319 -15.075899 0.000000 0.000000 0.000000 -15.719217 3.098055 -3.679828 -52.569492 -3.587725 -4.771480 -14.006415 -23.961606 3.698582 0.000000 0.000000 0.000000 16.210456 -5.415036 -3.517497 60.440336 2.945309 -4.438472 6.015366 18.035282 1.566292 0.000000 0.000000 0.000000 
0.000284 0.947549 0.000376 -2.110843 7.496455 7.377613 6.582880 -0.380170 -2.184786 1.069452 0.217300 -8.136507 1.883661 8.427552 11.920819 0.000000 0.000000 0.000000 -3.116828 0.480890 -5.286479 -0.367866 -0.069305 -2.670233 -0.079378 -3.346760 9.517095 0.000000 0.000000 0.000000 0.994074 0.161110 -4.488727 0.439431 0.016869 -4.464266 -1.480019 -0.924298 5.914537 2.347216 0.064834 -16.088445 0.000000 0.000000 0.000000 -16.067654 4.879723 -4.617655 -51.692835 -2.405399 -5.124446 -18.628165 -26.894865 5.261817 0.000000 0.000000 0.000000 16.356951 -5.797543 -3.768163 60.241070 2.099998 -4.780667 7.324486 19.723245 1.936048 0.000000 0.000000 0.000000 
0.000565 0.947239 0.000418 -1.945879 8.067789 7.437689 6.562826 -0.394196 -2.410337 0.705381 0.205534 -7.544321 1.298452 7.320591 11.182695 0.000000 0.000000 0.000000 -3.243551 0.493918 -5.577204 -0.351224 -0.061763 -2.476912 -0.682642 -4.376408 8.943692 0.000000 0.000000 0.000000 0.490833 0.149258 -4.295781 1.033621 -0.149085 -5.901505 -1.984545 -1.834439 6.689606 1.671313 0.439241 -16.262296 0.000000 0.000000 0.000000 -14.788773 5.256960 -4.457973 -52.253575 -2.069085 -5.427655 -21.740453 -30.782794 6.980995 0.000000 0.000000 0.000000 16.551741 -4.610549 -3.226637 59.599977 2.508350 -4.646158 7.887965 20.721826 2.138348 0.000000 0.000000 0.000000 
0.000848 0.947264 0.000315 -2.135025 8.698531 7.739088 7.140619 -0.438854 -2.718127 0.504300 0.219377 -7.960076 1.280617 7.600696 11.941652 0.000000 0.000000 0.000000 -3.459817 0.530530 -6.231191 0.080674 -0.085059 -2.009154 -0.815613 -4.533251 8.756468 0.000000 0.000000 0.000000 0.294058 0.152593 -4.474546 0.692242 -0.039891 -5.170123 -1.439051 -2.987007 5.201858 1.185997 0.578542 -15.498645 0.000000 0.000000 0.000000 -14.420922 6.041669 -4.630528 -51.765028 -2.639964 -5.001956 -27.209361 -36.901070 10.442868 0.000000 0.000000 0.000000 15.613591 -4.420564 -3.247093 59.458062 2.630417 -4.414488 10.220448 22.797470 2.761837 0.000000 0.000000 0.000000 
0.001076 0.947155 -0.000175 -1.991312 9.319323 7.404643 7.058476 -0.431302 -2.408584 0.532464 0.215731 -7.963986 0.413315 6.390214 12.209886 0.000000 0.000000 0.000000 -3.521192 0.508849 -6.050842 -0.070176 -0.047803 -1.466108 -1.458860 -5.757008 8.477436 0.000000 0.000000 0.000000 -0.207727 0.131325 -3.899133 1.262547 -0.263255 -5.271070 -1.876173 -3.225560 4.996706 0.482742 0.950818 -14.549247 0.000000 0.000000 0.000000 -13.643515 6.248250 -4.613307 -49.829109 -4.234236 -4.141601 -37.472558 -45.665457 17.746597 0.000000 0.000000 0.000000 15.617994 -4.538975 -3.273329 58.571736 3.273287 -4.020377 12.798645 25.488265 3.705276 0.000000 0.000000 0.000000 
0.001197 0.947648 -0.001133 -2.170039 9.715583 7.338586 7.340533 -0.445767 -2.298676 0.873647 0.215293 -8.256342 0.195758 6.156685 12.393495 0.000000 0.000000 0.000000 -3.444095 0.516846 -6.179827 0.028519 -0.049386 -1.227697 -1.531665 -5.880145 8.542392 0.000000 0.000000 0.000000 -0.600892 0.124524 -3.706636 1.390997 -0.338641 -4.842047 -1.397947 -3.187563 4.073125 0.340190 0.973067 -13.529104 0.000000 0.000000 0.000000 -12.901964 5.817952 -4.304274 -46.721240 -8.559918 -2.176770 -48.357970 -55.029763 28.141168 0.000000 0.000000 0.000000 14.525521 -4.132660 -2.940594 57.929659 3.923204 -3.563331 15.631639 28.478981 4.897544 0.000000 0.000000 0.000000 
